<svg viewBox="0 0 64 64" fill="none" xmlns="http://www.w3.org/2000/svg">
<path d="M64 16.8576V47.1296C64 56.4096 56.4224 64 47.1552 64H16.8576C7.5776 64 0 56.4224 0 47.1424V16.8576C0 7.5904 7.5904 0 16.8576 0H47.1552C56.4224 0 64 7.5904 64 16.8576Z" fill="#3F7AFA" />
<path d="M56.2314 8.06397C55.9882 9.43357 55.3354 12.3136 53.7738 15.4752C50.9697 22.072 40.9472 25.7139 40.6004 28.0392C39.8799 29.6264 43.9567 29.1104 45.9253 28.8862C46.4885 28.8222 46.8597 29.4366 46.5653 29.9102C42.9581 35.7956 38.6812 36.0079 31.8957 37.5051C30.4621 37.8251 28.9534 38.363 28.6705 39.5512C28.2133 41.4715 32.0903 40.7896 34.2151 41.1224C34.8039 41.212 34.9959 41.98 34.4967 42.3256C30.4135 45.1928 25.7674 46.5408 20.1482 47.808C19.0602 48.0512 17.9466 48.2688 16.7946 48.4224C16.7946 48.4224 16.7946 48.4224 16.7818 48.4352C16.6538 48.64 14.8234 51.648 14.081 55.232C14.0298 55.5008 13.8122 55.6928 13.5562 55.744C11.9434 56.0128 10.3562 56.6016 9.19145 57.1008C8.62825 57.344 8.07785 56.7296 8.38505 56.2048C9.17865 54.848 10.305 53.0048 11.8282 50.7648C11.841 50.7392 11.8666 50.7264 11.8794 50.7008C17.281 42.7264 27.4186 29.7856 43.8154 16.192C29.9402 23.5392 17.8954 38.2592 14.0554 43.2512C13.6842 43.7376 12.9162 43.4176 13.0058 42.816C13.633 38.3616 14.7199 29.3638 23.7823 20.8518C24.2303 20.4294 24.4159 21.4704 24.3647 22.072C24.3647 22.072 23.2869 24.5301 25.1184 24.6069C25.6857 24.6307 26.8435 23.8292 27.2659 23.0228C30.6067 16.6996 35.5338 11.6736 42.3818 9.62557C46.2346 8.47357 50.5866 7.65437 55.5146 7.28317C55.9498 7.24477 56.3082 7.62877 56.2314 8.06397Z" fill="white" />
</svg>
